<?xml version="1.0" encoding="utf-8"?>
<!-- Generator: Adobe Illustrator 25.0.0, SVG Export Plug-In . SVG Version: 6.00 Build 0)  -->
<svg version="1.1" id="visual" xmlns="http://www.w3.org/2000/svg" xmlns:xlink="http://www.w3.org/1999/xlink" x="0px" y="0px"
	 viewBox="0 0 900 600" style="enable-background:new 0 0 900 600;" xml:space="preserve">
<style type="text/css">
	.st0{fill:#ECA24E;}
	.st1{fill:#DB934A;}
	.st2{fill:#CA8445;}
	.st3{fill:#B97640;}
	.st4{fill:#A7683B;}
</style>
<path class="st0" d="M0,411l16.7,3.3c16.6,3.4,50,10,83.3,16s66.7,11.4,100,10.9s66.7-6.9,100-13.9s66.7-14.6,100-10.3
	s66.7,20.7,100,26.8c33.3,6.2,66.7,2.2,100,0.2s66.7-2,100-6s66.7-12,100-13.7c33.3-1.6,66.7,3,83.3,5.4L900,432v169h-16.7
	c-16.6,0-50,0-83.3,0s-66.7,0-100,0s-66.7,0-100,0s-66.7,0-100,0s-66.7,0-100,0s-66.7,0-100,0s-66.7,0-100,0s-66.7,0-100,0
	s-66.7,0-83.3,0H0V411z"/>
<path class="st1" d="M0,451l16.7,2.5c16.6,2.5,50,7.5,83.3,9.3c33.3,1.9,66.7,0.5,100-1s66.7-3.1,100-3.8s66.7-0.3,100,1.5
	s66.7,5.2,100,6.5s66.7,0.7,100-4.3s66.7-14.4,100-14.4s66.7,9.4,100,11.7s66.7-2.3,83.3-4.7L900,452v149h-16.7c-16.6,0-50,0-83.3,0
	s-66.7,0-100,0s-66.7,0-100,0s-66.7,0-100,0s-66.7,0-100,0s-66.7,0-100,0s-66.7,0-100,0s-66.7,0-100,0s-66.7,0-83.3,0H0V451z"/>
<path class="st2" d="M0,481l16.7,5.2c16.6,5.1,50,15.5,83.3,18s66.7-2.9,100-7.9s66.7-9.6,100-12.6s66.7-4.4,100-1
	c33.3,3.3,66.7,11.3,100,16.3s66.7,7,100,8s66.7,1,100-0.5s66.7-4.5,100-4.8c33.3-0.4,66.7,2,83.3,3.1L900,506v95h-16.7
	c-16.6,0-50,0-83.3,0s-66.7,0-100,0s-66.7,0-100,0s-66.7,0-100,0s-66.7,0-100,0s-66.7,0-100,0s-66.7,0-100,0s-66.7,0-100,0
	s-66.7,0-83.3,0H0V481z"/>
<path class="st3" d="M0,511l16.7,4.8c16.6,4.9,50,14.5,83.3,20.2s66.7,7.3,100,6.3s66.7-4.6,100-9c33.3-4.3,66.7-9.3,100-10.1
	c33.3-0.9,66.7,2.5,100,1.3s66.7-6.8,100-4.2c33.3,2.7,66.7,13.7,100,15.9c33.3,2.1,66.7-4.5,100-4.4c33.3,0.2,66.7,7.2,83.3,10.7
	L900,546v55h-16.7c-16.6,0-50,0-83.3,0s-66.7,0-100,0s-66.7,0-100,0s-66.7,0-100,0s-66.7,0-100,0s-66.7,0-100,0s-66.7,0-100,0
	s-66.7,0-100,0s-66.7,0-83.3,0H0V511z"/>
<path class="st4" d="M0,571l16.7-3.8c16.6-3.9,50-11.5,83.3-14s66.7,0.1,100,4c33.3,3.8,66.7,8.8,100,8.5c33.3-0.4,66.7-6,100-10.7
	s66.7-8.3,100-5.7c33.3,2.7,66.7,11.7,100,16c33.3,4.4,66.7,4,100,2.4c33.3-1.7,66.7-4.7,100-4.7s66.7,3,83.3,4.5L900,569v32h-16.7
	c-16.6,0-50,0-83.3,0s-66.7,0-100,0s-66.7,0-100,0s-66.7,0-100,0s-66.7,0-100,0s-66.7,0-100,0s-66.7,0-100,0s-66.7,0-100,0
	s-66.7,0-83.3,0H0V571z"/>
</svg>
